<?xml version="1.0" encoding="UTF-8"?>
<svg width="128pt" height="128pt" version="1.1" viewBox="0 0 128 128" xmlns="http://www.w3.org/2000/svg">
 <path d="m7.25 67.988c0 1.0469-0.85156 1.8945-1.8945 1.8945-1.0469 0-1.8945-0.85156-1.8945-1.8945 0-1.0469 0.85156-1.8945 1.8945-1.8945 1.0469 0 1.8945 0.85156 1.8945 1.8945zm45.996-31.5c1.0469 0 1.8945-0.85156 1.8945-1.8945 0-1.0469-0.85156-1.8945-1.8945-1.8945-1.0469 0-1.8945 0.85156-1.8945 1.8945 0 1.0469 0.85156 1.8945 1.8945 1.8945zm67.332 22.316c0.76953 0.71094 1.9648 0.66406 2.6797-0.10547 0.71094-0.76953 0.66406-1.9648-0.10547-2.6797-0.76953-0.71094-1.9648-0.66406-2.6797 0.10547-0.70312 0.76953-0.66016 1.9688 0.10547 2.6797zm-0.67188-8.0352c0.54688-0.58984 0.51172-1.5117-0.078125-2.0586-0.58984-0.54688-1.5117-0.51172-2.0586 0.078124-0.54688 0.58984-0.51172 1.5117 0.078125 2.0586s1.5156 0.51172 2.0586-0.078125zm-74.145-15.824c0.80078 0 1.4531-0.65625 1.4531-1.4531 0-0.80469-0.65625-1.4609-1.4531-1.4609-0.80078 0-1.4531 0.65625-1.4531 1.4531 0 0.80469 0.65625 1.4609 1.4531 1.4609zm-36.859 38.996c-0.80078 0-1.4531 0.65625-1.4531 1.4531 0 0.80078 0.65625 1.4531 1.4531 1.4531 0.80078 0 1.4531-0.65625 1.4531-1.4531 0-0.80078-0.65625-1.4531-1.4531-1.4531zm69.793-11.824c-0.75391-0.58594-1.6367-1.1484-2.625-1.6836 1.2852 1.1055 1.9297 2.2891 1.6562 3.3438-0.60937 2.3008-5.3906 3.0859-10.68 1.7539-5.2891-1.3281-9.0898-4.2695-8.4805-6.5703 0.28516-1.0703 1.4766-1.8164 3.1992-2.1719-1.1992-0.011718-2.3164 0.074219-3.3203 0.23828-2.4141 0.39453-4.0664 1.2383-4.3867 2.4414-0.32031 1.1992 0.71094 2.7266 2.6289 4.2109 2.2656 1.7539 5.6602 3.3438 9.6406 4.3438l0.085937 0.019531 0.03125 0.011719c3.9414 0.97656 7.6562 1.1758 10.488 0.71094 2.4141-0.39453 4.0703-1.2383 4.3867-2.4414 0.32031-1.1992-0.70312-2.7188-2.625-4.2109zm47.16 3.5586c-1.6094 19.25-21.414 24.816-42.719 23.035-10.539-0.87891-21.473-3.5703-30.641-7.2734-9.3281-3.7617-16.906-8.6133-20.516-13.754-1.0859-1.5391-1.8516-3.0938-2.2383-4.6484-0.03125 0.23828-0.039063 0.48438-0.039063 0.71875 0 4.1367 3.4844 8.3086 8.2031 12.035l0.10938 0.074219c8.1562 6.3984 19.691 11.25 24.445 12.773 0.82422 0.26562 1.4219 1.0469 1.4062 1.9609-0.015626 1.1211-0.94141 2.0117-2.0586 1.9883-16.113-0.30859-31.332-5.3906-40.738-12.477-4.0742-3.0742-7.1055-6.5508-8.7188-10.234-1.6992-3.8789-1.8398-7.9258-0.03125-11.93 0.82422-1.8047 2.0508-3.6016 3.7266-5.3359-5.4883 3.4688-9.6094 8.3164-10.227 9.0586-0.42578 0.58984-1.1602 0.92969-1.9297 0.82031-1.1055-0.15625-1.875-1.1836-1.7188-2.2891 1.0898-7.6602 4.9219-13.094 10.531-16.746 6.9648-4.5352 16.645-6.2109 27.129-5.9219 10.297 0.28516 21.434 2.4688 31.516 5.6719 10.988 3.4961 20.789 8.2734 27.035 13.23-2.6562-3.2734-6.875-6.3047-11.586-8.9297-8.9219-4.9648-19.48-8.3711-25.059-9.4141-0.050781-0.003906-0.10547-0.015625-0.16016-0.019532l-0.22656-0.039062c-0.89453-0.16016-1.5938-0.90625-1.6641-1.8516-0.085938-1.1211 0.75391-2.0938 1.8711-2.1719 17.836-1.3438 33.875 3.3789 43.789 10.605 4.1992 3.0586 7.3438 6.5742 9.1211 10.297 1.8594 3.9062 2.2461 8.0195 0.83594 12.078-0.85547 2.4531-2.375 4.8711-4.6367 7.1758 6.0703-3.4492 10.781-8.9414 11.516-9.8281 0.39844-0.56641 1.0859-0.91406 1.8359-0.85938 1.1055 0.10156 1.9336 1.0859 1.8438 2.1992zm-20.75-0.18359-0.003907 0.070312s8.1602-10.68-16.375-24.602c-3.7383-1.1758-7.7891-2.0586-12.078-2.5859 4.0039 1.5391 8.2109 3.4258 12.105 5.5938 9.8789 5.5156 17.859 12.926 16.355 21.52zm-23.824-5.8516c-1.3594-1.0547-3.0391-2.0586-4.9531-2.9414-1.9219-0.875-4.0742-1.6445-6.3867-2.2266l-0.019531-0.003906c-4.625-1.1562-9.0664-1.3945-12.496-0.82422-3.8789 0.63672-6.6133 2.3047-7.2852 4.8516-0.66406 2.5391 0.89453 5.2852 3.9766 7.6641 2.7109 2.1016 6.6797 3.9844 11.27 5.1445l0.089843 0.019531c4.6211 1.1602 9.0586 1.3984 12.496 0.83594 3.8711-0.63672 6.6094-2.3047 7.2812-4.8516s-0.89844-5.2891-3.9688-7.6719zm-59.852 11.203c-7.3867-9.9883 1.875-18.895 2.2969-19.289-2.6758 1.75-4.6719 3.5508-6.0742 5.375-0.68359 0.89453-1.2305 1.7891-1.6406 2.6914-1.3086 2.8867-1.1953 5.8242 0.039062 8.6445 0.41406 0.94141 0.94922 1.8711 1.5938 2.7852 1.4336 2.0312 3.4258 3.9883 5.8594 5.8281 6.0352 4.5469 14.684 8.2109 24.449 10.156-5.9102-2.1562-20.57-8.125-26.527-16.188zm60.066-19.531c-3.5312-1.5391-7.3711-2.9766-11.391-4.25-9.7461-3.0938-20.492-5.1992-30.398-5.4766-8.3633-0.23047-16.102 0.83594-22.055 3.7109-0.96484 0.46875-1.8906 0.98438-2.7617 1.5547-2.4336 1.5898-4.4766 3.5898-5.9844 6.0586 2.4336-2.0586 5.4297-4.2031 8.7461-5.7539 2.9883-1.3945 6.2305-2.2969 9.5391-2.1992 25.887-3.2969 52.883 5.8633 54.305 6.3555zm38.41 21.066c-2.5586 2.2539-5.875 4.7305-9.5586 6.4531-2.6602 1.2383-5.5156 2.0938-8.4492 2.1992-13.633 3.6016-72.852-7.4844-64.477-26.441-4.4062 3.4297-4.6406 7.1797-2.1289 10.762 3.1562 4.4805 10.074 8.8516 18.711 12.324 8.8008 3.5547 19.316 6.1406 29.465 6.9844 10.066 0.83984 19.754-0.035156 26.879-3.4102 4.2461-2.0156 7.5859-4.9219 9.5586-8.875zm-36.898 20.676c-0.80078 0-1.4531 0.65625-1.4531 1.4531 0 0.80078 0.65625 1.4531 1.4531 1.4531 0.80078 0 1.4531-0.65625 1.4531-1.4531 0-0.80078-0.65625-1.4531-1.4531-1.4531zm-9.0664-1.3359c-1.1562 0-2.1016 0.94531-2.1016 2.1016s0.94531 2.1016 2.1016 2.1016 2.1016-0.94531 2.1016-2.1016c0-1.1602-0.94141-2.1016-2.1016-2.1016z"/>
</svg>
